<svg id="Слой_1" data-name="Слой 1" xmlns="http://www.w3.org/2000/svg" viewBox="0 0 413.74 437.91"><defs><style>.cls-1{fill:#d34346;}</style></defs><title>arrow-right</title><path class="cls-1" d="M403.36,204.53a34.41,34.41,0,0,1,10.38,25.3,36,36,0,0,1-10.41,25.57L220.27,438a35.63,35.63,0,0,1-50.87,0l-21.07-20.81a36,36,0,0,1,0-51.16l82.39-82.31-197.88-.09q-14.61,0-23.74-10.55T0,247.63v-36q0-14.9,9.15-25.44t23.75-10.53l197.88,0.09L148.47,93.11Q137.79,83,137.8,67.81t10.69-25.29l21.09-21.36a34.42,34.42,0,0,1,25.31-10.38,36,36,0,0,1,25.57,10.41Z" transform="translate(0 -10.78)"/></svg>