<svg id="Слой_1" data-name="Слой 1" xmlns="http://www.w3.org/2000/svg" viewBox="0 0 13.65 80.52"><defs><style>.cls-1{fill:#bd2c30;}</style></defs><title>ic-sprite</title><path class="cls-1" d="M.77,3.36A5.5,5.5,0,0,1,8.1,1.22,3,3,0,0,1,10.1,4a2.72,2.72,0,0,1-2,2.72c-2,.61-4.16,1-6.54,1.47,1.13-1,1-1.72,0-2.43a4.34,4.34,0,0,1-.8-1.15Z" transform="translate(-0.77 -0.58)"/><path class="cls-1" d="M12.72,72.49c-.24.31-.42.73-.74.92-2.18,1.36-1.84,3.27-1.35,5.32.17.7.84,1.58-.25,2.36L8.51,77.27C7,78.12,6.78,78.51,7,80a2.69,2.69,0,0,1-.18.93L3.49,77.64c1.19-.42,3.17.66,3.67-1.68L3.43,74.13v-.31a5.45,5.45,0,0,1,1.13-.21,4.63,4.63,0,0,1,1.29.23c2,.64,3.85.79,5.23-1.3.25-.37,1.08-.36,1.64-.53Z" transform="translate(-0.77 -0.58)"/><path class="cls-1" d="M6.82,14.13c1.36,0,2.72,0,4.07,0,.88,0,1.35.32,1.34,1.25q0,3.41,0,6.83a1.05,1.05,0,0,1-1.17,1.2q-4.31,0-8.63,0a1.1,1.1,0,0,1-1.2-1.21q0-3.41,0-6.83A1.11,1.11,0,0,1,2.5,14.13C3.94,14.14,5.38,14.13,6.82,14.13Zm1.89,5.73.32.36a16.87,16.87,0,0,0,2.44-.45c.1,0,0-1.31-.12-1.35a4.3,4.3,0,0,0-2.19-.07C8.88,18.43,8.85,19.33,8.71,19.86Zm1.32,1c-.43,0-1.25-.31-1.25.93,0,1.09.64,1,1.33,1s1.46.26,1.47-1S10.94,20.78,10,20.82Zm-6.55-.71c.39,0,1.16.28,1.19-.88s-.68-1-1.41-1-1.37-.11-1.37,1S2.57,20.15,3.48,20.11Zm3.27,0c.69,0,1.38.15,1.39-.94s-.66-1-1.35-1-1.45-.16-1.42,1S6.13,20.09,6.76,20.12Zm-3.52.69c-.64,0-1.36-.15-1.33,1s.77.9,1.42.91,1.35.13,1.36-1S4,20.78,3.23,20.81Zm3.4,0c-.51,0-1.25-.24-1.27.9s.71,1,1.42,1,1.36.08,1.35-1S7.44,20.8,6.63,20.81ZM4.57,15.64A21.23,21.23,0,0,0,2,16.05a2.22,2.22,0,0,0,0,1.17,20.72,20.72,0,0,0,2.53.37Zm.91,2A21.33,21.33,0,0,0,8,17.18,2.2,2.2,0,0,0,8,16a20.51,20.51,0,0,0-2.51-.35Zm3.4-.2h2.59V15.85H8.87Z" transform="translate(-0.77 -0.58)"/><path class="cls-1" d="M5.07,43.08H8.79a3.29,3.29,0,0,0-.29,4.21c.9,1.42,1.82,2.82,2.69,4.25.61,1,.33,1.47-.85,1.48q-3.6,0-7.2,0c-1.22,0-1.47-.44-.84-1.47.81-1.33,1.74-2.59,2.47-4A7.14,7.14,0,0,0,5.5,45,6.7,6.7,0,0,0,5.07,43.08Zm2.23.68-.56-.19c-.17.35-.53.72-.49,1A5.55,5.55,0,0,1,5,48.71a7.14,7.14,0,0,0-.51,1H9.18C7.82,47.79,6.71,46,7.3,43.76Z" transform="translate(-0.77 -0.58)"/><path class="cls-1" d="M2.85,36.54c-.58-.45-1.21-.74-.66-1.66.12-.2-.49-.83-.76-1.27l-.34.18L1,32.66c1.52-.78,1.52-.78.81-1.88.4-.61.7-1.39,1.7-.65.13.09.77-.19.78-.33.1-1.08.8-.88,1.56-.83.26.73.3,1.86,1.58.94.17-.12.8.39,1.29.65-.48.83-1.1,1.57.28,1.92a2.89,2.89,0,0,1,.06,1.39c-1.3.29-1,.94-.42,1.66-.47.67-.8,1.33-1.74.67-.14-.1-.8.55-1.21.85l.17.29H4.57C4.44,36.11,3.93,35.61,2.85,36.54ZM5.26,31.4a1.71,1.71,0,0,0-1.75,1.72,1.69,1.69,0,0,0,1.67,1.79,1.75,1.75,0,1,0,.08-3.5Z" transform="translate(-0.77 -0.58)"/><path class="cls-1" d="M8.14,66.93c-1.68,0-3.35,0-5,0-1,0-1.38-.43-1.38-1.37q0-3.65,0-7.31c0-1,.46-1.42,1.47-1.41q4.91,0,9.82,0c.94,0,1.41.33,1.4,1.32,0,2.48,0,5,0,7.43,0,1-.42,1.36-1.37,1.34C11.41,66.91,9.77,66.93,8.14,66.93Zm5.59-.68c0-2.78,0-5.33,0-7.88,0-.75-.39-.84-1-.83-3.12,0-6.23,0-9.35,0-.71,0-1,.25-1,1q0,3.41,0,6.83c0,.75.32.94,1,.93,2.24,0,4.47,0,6.71,0Z" transform="translate(-0.77 -0.58)"/><path class="cls-1" d="M5.75,8.63C8.66,7.94,11,6.92,11.17,3.46c2.08.84,2,2.94-.19,5l.77,1.32Z" transform="translate(-0.77 -0.58)"/><path class="cls-1" d="M11.26,38.28l-1.17.5a6.16,6.16,0,0,0-.25-1.09c-.09-.21-.34-.36-.52-.53l-.61-.57A5.22,5.22,0,0,0,9.29,36a4.94,4.94,0,0,0,.49-.86c.1-.22.07-.59.22-.67s.48.08.73.09a2.42,2.42,0,0,0,1.08,0c.71-.35.89-.15.95.58a1.43,1.43,0,0,0,.56.92c.6.43.58.75,0,1.13a1.67,1.67,0,0,0-.62.55,5.36,5.36,0,0,0-.29,1.1Zm0-.33c.4-.71.78-1.08.76-1.42s-.57-.84-.76-.79a1.33,1.33,0,0,0-.89.83C10.36,36.89,10.82,37.27,11.3,38Z" transform="translate(-0.77 -0.58)"/><path class="cls-1" d="M11.39,28a2.1,2.1,0,0,1,.46-.4.8.8,0,0,1,.62-.08.65.65,0,0,1,.26.56c-.17.61-.06.91.6,1.15s.64.76,0,1-.76.47-.57,1.06a.62.62,0,0,1-.22.56.65.65,0,0,1-.62,0c-.43-.51-.79-.6-1.27-.06a.63.63,0,0,1-.62.06c-.16-.14-.13-.46-.24-.67a6.91,6.91,0,0,0-.55-.91c-.14-.19-.47-.36-.45-.52s.27-.4.45-.57.53-.32.64-.55a4.56,4.56,0,0,0,.23-1.1Zm-.06,3.06c.37-.66.78-1.07.73-1.39s-.57-.59-.88-.87c-.28.33-.76.65-.78,1S10.86,30.47,11.33,31.08Z" transform="translate(-0.77 -0.58)"/><path class="cls-1" d="M11.22,58.61h1.42v6.54H11.22Z" transform="translate(-0.77 -0.58)"/><path class="cls-1" d="M6.09,65.16V59.55H7.57v5.61Z" transform="translate(-0.77 -0.58)"/><path class="cls-1" d="M10.12,65.18H8.72v-4h1.4Z" transform="translate(-0.77 -0.58)"/><path class="cls-1" d="M4.92,65.19H3.48V63H4.92Z" transform="translate(-0.77 -0.58)"/></svg>