<svg id="Слой_1" data-name="Слой 1" xmlns="http://www.w3.org/2000/svg" viewBox="0 0 174.75 54.92"><defs><style>.cls-1{fill:#fff;}</style></defs><title>ic-sprite-social</title><path class="cls-1" d="M50.61,12.76a20.11,20.11,0,0,1-5.81,1.59,10.12,10.12,0,0,0,4.44-5.59,20.23,20.23,0,0,1-6.42,2.45,10.12,10.12,0,0,0-17.22,9.22A28.7,28.7,0,0,1,4.77,9.87,10.12,10.12,0,0,0,7.9,23.36,10.08,10.08,0,0,1,3.32,22.1s0,.08,0,.13a10.11,10.11,0,0,0,8.11,9.91,10.16,10.16,0,0,1-2.66.35,10,10,0,0,1-1.9-.18,10.12,10.12,0,0,0,9.44,7A20.28,20.28,0,0,1,3.76,43.65a20.43,20.43,0,0,1-2.41-.14,28.6,28.6,0,0,0,15.49,4.54c18.59,0,28.76-15.4,28.76-28.76q0-.66,0-1.31A20.47,20.47,0,0,0,50.61,12.76Z"/><path class="cls-1" d="M93.64,54.88l-.6,0c-3.61,0-7.22,0-10.83,0-.51,0-.64-.14-.64-.64q0-12.62,0-25.24v-.73H75.75v-9h.57c1.58,0,3.17,0,4.75,0,.4,0,.51-.12.51-.51,0-2.36,0-4.72,0-7.08a10.39,10.39,0,0,1,1-4.74,9,9,0,0,1,5-4.31,15.71,15.71,0,0,1,5.53-1c3.06,0,6.13,0,9.19,0,.29,0,.52,0,.52.39q0,4.36,0,8.72a.86.86,0,0,1-.05.2h-.58c-1.9,0-3.8,0-5.71,0a2.76,2.76,0,0,0-2.55,1.41,2,2,0,0,0-.27,1c0,1.8,0,3.59,0,5.39,0,.42.13.54.54.54,2.64,0,5.28,0,7.92,0h.77c-.37,3-.73,6-1.1,9H93.64C93.64,37.16,93.64,46,93.64,54.88Z"/><path class="cls-1" d="M172.1,24.1h-7.51V16.59a1,1,0,0,0-1-1h-2.14a1,1,0,0,0-1,1V24.1h-7.51a1,1,0,0,0-1,1v2.14a1,1,0,0,0,1,1h7.51v7.51a1,1,0,0,0,1,1h2.14a1,1,0,0,0,1-1V28.31h7.51a1,1,0,0,0,1-1V25.14A1,1,0,0,0,172.1,24.1Z"/><path class="cls-1" d="M146.85,30.68c-1.58-1.12-3-2.76-3-3.26,0-.92.08-1.36,2.14-3a9.85,9.85,0,0,0,4.13-7.72,10.28,10.28,0,0,0-2.17-6.59H149a1,1,0,0,0,.61-.2l3-2.14a1,1,0,0,0-.61-1.88H138.71a13.4,13.4,0,0,0-4.36.75c-4.82,1.66-8.18,5.77-8.18,10,0,6,4.62,10.49,10.81,10.64a5.62,5.62,0,0,0-.18,1.4,5.22,5.22,0,0,0,.71,2.63h-.17c-5.89,0-11.21,2.89-13.23,7.19a7.89,7.89,0,0,0-.79,3.37,6.33,6.33,0,0,0,.83,3.11c1.27,2.27,4,4,7.68,5a24.82,24.82,0,0,0,6.07.72,19.44,19.44,0,0,0,5.4-.73c5.24-1.52,8.62-5.38,8.62-9.83C151.91,35.85,150.54,33.29,146.85,30.68Zm-16.69,9.78c0-3.11,3.95-5.83,8.45-5.83h.12a10.09,10.09,0,0,1,2.83.43l.89.61c2.08,1.42,3.46,2.36,3.84,3.86a4.88,4.88,0,0,1,.14,1.13c0,3.87-2.89,5.83-8.58,5.83C133.54,46.49,130.16,43.84,130.16,40.46Zm4.09-29.36a3.45,3.45,0,0,1,2.66-1.23H137c2.92.09,5.72,3.34,6.23,7.26a7.06,7.06,0,0,1-1.3,5.51,3.45,3.45,0,0,1-2.69,1.23h0c-2.86-.09-5.72-3.47-6.23-7.38A6.83,6.83,0,0,1,134.26,11.1Z"/></svg>