<svg id="Слой_1" data-name="Слой 1" xmlns="http://www.w3.org/2000/svg" viewBox="0 0 40.87 186.45"><defs><style>.cls-1{fill:#2c3e50;}</style></defs><title>ic-sprite-intro</title><path class="cls-1" d="M27.79,62.33a1.28,1.28,0,0,0-.36-.91,1.15,1.15,0,0,0-.86-.38,17.91,17.91,0,0,0-6.09,1,17.52,17.52,0,0,0-5,2.71A32.59,32.59,0,0,0,11,69.2a1.38,1.38,0,0,0-.36.91A1.28,1.28,0,0,0,11,71a1.15,1.15,0,0,0,.86.38,1.23,1.23,0,0,0,.86-.38q.52-.49,1.42-1.44l1.28-1.34a17.24,17.24,0,0,1,5.14-3.57,15.51,15.51,0,0,1,6-1.05,1.15,1.15,0,0,0,.86-.38A1.28,1.28,0,0,0,27.79,62.33Zm9.8-4a20.61,20.61,0,0,1-.38,3.91A17.1,17.1,0,0,1,33.68,70a22,22,0,0,1-6.85,5.43,17.61,17.61,0,0,1-8.39,2.19,16,16,0,0,1-5.48-1q-.29-.1-1.69-.85a5.46,5.46,0,0,0-1.84-.75q-.31,0-.76.65a14.37,14.37,0,0,0-.86,1.42,6.94,6.94,0,0,1-1,1.42,1.64,1.64,0,0,1-1.15.65,2,2,0,0,1-1-.22,1.79,1.79,0,0,1-.59-.49,9,9,0,0,1-.52-.85l-.11-.22-.11-.2A1,1,0,0,1,3.31,77a1.28,1.28,0,0,1,0-.27,2.49,2.49,0,0,1,.59-1.49,7.08,7.08,0,0,1,1.3-1.33,14.07,14.07,0,0,0,1.3-1.13,1.6,1.6,0,0,0,.59-1A5.22,5.22,0,0,0,6.8,71a6.9,6.9,0,0,1-.31-.89A12.79,12.79,0,0,1,6.32,68a12.35,12.35,0,0,1,3.11-8.19A17,17,0,0,1,12.7,57a17.48,17.48,0,0,1,3.91-1.93,11.92,11.92,0,0,1,2.78-.52q1.72-.15,3.44-.18t3.42-.12a14.66,14.66,0,0,0,3.13-.49,4.83,4.83,0,0,0,2.17-1.14l.56-.6.56-.57.52-.41.7-.32.83-.09a1.67,1.67,0,0,1,1.35.93A7,7,0,0,1,37,53.86q.31,1.34.46,2.51A15.58,15.58,0,0,1,37.59,58.32Z" transform="translate(0 -1.1)"/><g id="Artboard-1"><path id="house-home-real_estate-property-glyph" data-name="house-home-real estate-property-glyph" class="cls-1" d="M20.43,107l19.29,15.59,1.15-1.42L20.43,104.62,0,121.16l1.15,1.42Zm18.24.62H33.2v5L38.68,117ZM4,144.1H36.85V122.6L20.43,109.32,4,122.6ZM15,142.27H25.91V125.86H15Z" transform="translate(0 -1.1)"/></g><path class="cls-1" d="M16.28,173.68a4.16,4.16,0,1,1,4.16,4.16A4.08,4.08,0,0,1,16.28,173.68Zm4.16,6.93c-6.38,0-8.32,4.57-8.32,4.57v2.36H28.75v-2.36S26.81,180.62,20.43,180.62Z" transform="translate(0 -1.1)"/><circle class="cls-1" cx="29.45" cy="171.89" r="3.47"/><path class="cls-1" d="M29.45,179.23a6.45,6.45,0,0,0-3.88,1.11A8.55,8.55,0,0,1,30,184.77v.14h5.68v-1.8A6.45,6.45,0,0,0,29.45,179.23Z" transform="translate(0 -1.1)"/><circle class="cls-1" cx="29.45" cy="171.89" r="3.47"/><path class="cls-1" d="M29.45,179.23a6.45,6.45,0,0,0-3.88,1.11A8.55,8.55,0,0,1,30,184.77v.14h5.68v-1.8A6.45,6.45,0,0,0,29.45,179.23Z" transform="translate(0 -1.1)"/><circle class="cls-1" cx="11.42" cy="171.89" r="3.47"/><path class="cls-1" d="M11.42,179.23a6.45,6.45,0,0,1,3.88,1.11,8.55,8.55,0,0,0-4.44,4.44v.14H5.18v-1.8A6.45,6.45,0,0,1,11.42,179.23Z" transform="translate(0 -1.1)"/><path class="cls-1" d="M23.28,15.05V15l-.45-6a.64.64,0,0,0-.21-.42.61.61,0,0,0-.43-.18H18.68a.61.61,0,0,0-.43.18.64.64,0,0,0-.21.42l-.45,6v.08a.43.43,0,0,0,.15.38.58.58,0,0,0,.4.15h4.6a.58.58,0,0,0,.4-.15A.43.43,0,0,0,23.28,15.05Zm14.31,8.8q0,1.38-.87,1.38H23.45a.55.55,0,0,0,.41-.18.53.53,0,0,0,.15-.42l-.38-4.83a.64.64,0,0,0-.21-.42A.61.61,0,0,0,23,19.2H17.87a.61.61,0,0,0-.43.18.64.64,0,0,0-.21.42l-.38,4.83a.53.53,0,0,0,.15.42.55.55,0,0,0,.41.18H4.15q-.87,0-.87-1.38a5.68,5.68,0,0,1,.49-2.19L11.63,2a1.54,1.54,0,0,1,.49-.62,1.15,1.15,0,0,1,.72-.26h6.39a.61.61,0,0,0-.43.18.64.64,0,0,0-.21.42L18.3,5.32a.53.53,0,0,0,.15.43.56.56,0,0,0,.41.17H22a.56.56,0,0,0,.41-.17.53.53,0,0,0,.15-.43L22.28,1.7a.64.64,0,0,0-.21-.42.61.61,0,0,0-.43-.18H28a1.15,1.15,0,0,1,.72.26,1.54,1.54,0,0,1,.49.62L37.1,21.67A5.68,5.68,0,0,1,37.59,23.86Z" transform="translate(0 -1.1)"/></svg>