<svg id="Слой_1" data-name="Слой 1" xmlns="http://www.w3.org/2000/svg" viewBox="0 0 18 38"><defs><style>.cls-1{fill:#314559;}.cls-2{fill:#d34346;}</style></defs><title>ic-sprite-check-box</title><g id="Page-1"><g id="Core"><g id="check-box-outline"><path id="Shape" class="cls-1" d="M4.9,7.1,3.5,8.5,8,13,18,3,16.6,1.6,8,10.2,4.9,7.1ZM16,16H2V2H12V0H2A2,2,0,0,0,0,2V16a2,2,0,0,0,2,2H16a2,2,0,0,0,2-2V8H16v8Z"/></g></g></g><g id="Page-1-2" data-name="Page-1"><g id="Core-2" data-name="Core"><g id="check-box-outline-2" data-name="check-box-outline"><path id="Shape-2" data-name="Shape" class="cls-2" d="M4.9,27.1,3.5,28.5,8,33,18,23l-1.4-1.4L8,30.2,4.9,27.1ZM16,36H2V22H12V20H2a2,2,0,0,0-2,2V36a2,2,0,0,0,2,2H16a2,2,0,0,0,2-2V28H16v8Z"/></g></g></g></svg>