<svg id="Слой_1" data-name="Слой 1" xmlns="http://www.w3.org/2000/svg" viewBox="0 0 1640 3552"><defs><style>.cls-1{fill:#2c3e50;}.cls-2{fill:#d34346;}</style></defs><title>ic-sprite-arrow</title><path class="cls-1" d="M884,1509H756q-53,0-90.5-32.5T628,1392V688L334,981q-36,38-90,38t-90-38L78,906q-37-37-37-90,0-52,37-91L730,74q37-37,90-37,52,0,91,37l650,651q38,38,38,91,0,52-38,90l-74,75q-38,38-91,38t-91-38L1012,688v704q0,52-37.5,84.5T884,1509Z"/><path class="cls-2" d="M884,3504H756q-53,0-90.5-32.5T628,3387V2683L334,2976q-36,38-90,38t-90-38l-76-75q-37-37-37-90,0-52,37-91l652-651q37-37,90-37,52,0,91,37l650,651q38,38,38,91,0,52-38,90l-74,75q-38,38-91,38t-91-38l-293-293v704q0,52-37.5,84.5T884,3504Z"/></svg>